# xmcd
#
# Track frame offsets: 
#        150
#        24575
#        48970
#        76090
#        89437
#        106030
#        122700
#        153932
#        167537
#        192702
#        212797
#        228915
#        246122
#        262545
#        274015
#        305727
#
# Disc length: 4381 seconds
#
# Revision: 3
# Processed by: cddbd v1.5.2PL0 Copyright (c) Steve Scherf et al.
# Submitted via: ExactAudioCopyFreeDBPlugin 1.0
#
DISCID=c6111b10
DTITLE=Various Artist - Sunshine State Blues
DYEAR=1996
DGENRE=Blues
TTITLE0=T.C. Carr and The Catch - Woman's Lookin' For A Man
TTITLE1=Backtrack Bluesband - Boogie Shack
TTITLE2=Smokehouse - Cadillac In Swamp
TTITLE3=James Peterson - Jacksonville
TTITLE4=Floyd Miles and Friends - I Been Missing You
TTITLE5=Midnight Creepers - Luberta
TTITLE6=Mark Hodgson Band - Voodoo Chile (Slight Return)
TTITLE7=Smokehouse - Peepin' Through The Knothole
TTITLE8=Pat Ramsey - King Of Fools
TTITLE9=Dr. Hector and The Groove Injectors - Pickin' The Blues
TTITLE10=Pat Ramsey - Allergic To Work
TTITLE11=Floyd Miles and Friends - Cold, Cold World
TTITLE12=Bill Wharton and The Ingredients - Swamp Boogie
TTITLE13=Dr. Hector and The Groove Injectors - Risky Buisiness
TTITLE14=Mark Hodgson Band - Starless Night
TTITLE15=Tony Coleman - Talkin' 'Bout The Blues
EXTD=YEAR: 1996
EXTT0=
EXTT1=
EXTT2=
EXTT3=
EXTT4=
EXTT5=
EXTT6=
EXTT7=
EXTT8=
EXTT9=
EXTT10=
EXTT11=
EXTT12=
EXTT13=
EXTT14=
EXTT15=
PLAYORDER=
